<?xml version="1.0" encoding="UTF-8"?>
<svg xmlns="http://www.w3.org/2000/svg" xmlns:xlink="http://www.w3.org/1999/xlink" width="40px" height="40px" viewBox="0 0 40 40" version="1.1">
<g id="surface1">
<path style=" stroke:none;fill-rule:nonzero;fill:rgb(0%,0%,0%);fill-opacity:1;" d="M 0 0.535156 C 0 0.800781 0.09375 0.800781 20 0.800781 C 39.90625 0.800781 40 0.800781 40 0.535156 C 40 0.265625 39.90625 0.265625 20 0.265625 C 0.09375 0.265625 0 0.265625 0 0.535156 Z M 0 0.535156 "/>
<path style=" stroke:none;fill-rule:nonzero;fill:rgb(0%,0%,0%);fill-opacity:1;" d="M 12.453125 7.121094 C 11.972656 7.332031 11.585938 7.8125 11.691406 8.078125 C 11.734375 8.1875 11.691406 8.265625 11.601562 8.265625 C 11.507812 8.265625 11.464844 8.375 11.507812 8.535156 C 11.546875 8.679688 11.535156 8.800781 11.464844 8.800781 C 11.105469 8.800781 10.867188 12.585938 11.226562 12.8125 C 11.359375 12.90625 11.359375 12.972656 11.238281 13.171875 C 11.121094 13.386719 11.132812 13.480469 11.308594 13.667969 C 11.425781 13.800781 11.464844 13.867188 11.375 13.8125 C 11.265625 13.746094 11.253906 13.828125 11.375 14.132812 C 11.453125 14.347656 11.574219 14.535156 11.625 14.535156 C 11.679688 14.535156 11.734375 14.71875 11.734375 14.933594 C 11.734375 15.199219 11.851562 15.453125 12.066406 15.667969 C 12.28125 15.851562 12.347656 16 12.253906 16.027344 C 12.148438 16.066406 12.160156 16.148438 12.320312 16.292969 C 12.441406 16.414062 12.535156 16.574219 12.535156 16.652344 C 12.535156 16.734375 12.71875 16.972656 12.933594 17.199219 C 13.160156 17.425781 13.332031 17.652344 13.332031 17.707031 C 13.332031 17.878906 14.308594 18.933594 14.453125 18.933594 C 14.535156 18.933594 14.761719 19.078125 14.960938 19.265625 C 15.160156 19.453125 15.375 19.601562 15.441406 19.601562 C 15.492188 19.601562 15.828125 19.773438 16.171875 20 C 16.519531 20.214844 16.945312 20.425781 17.132812 20.480469 C 17.332031 20.535156 17.425781 20.625 17.375 20.71875 C 17.320312 20.800781 17.398438 20.773438 17.535156 20.667969 C 17.679688 20.546875 17.746094 20.535156 17.679688 20.625 C 17.585938 20.785156 17.746094 20.867188 18.054688 20.8125 C 18.105469 20.800781 18.226562 20.839844 18.320312 20.90625 C 18.398438 20.972656 19.308594 21.011719 20.332031 21 C 22.464844 20.972656 22.441406 20.972656 22.347656 20.8125 C 22.308594 20.746094 22.574219 20.667969 22.933594 20.613281 C 23.308594 20.558594 23.601562 20.464844 23.601562 20.398438 C 23.601562 20.320312 23.667969 20.265625 23.761719 20.265625 C 24.039062 20.265625 25.453125 19.265625 25.464844 19.066406 C 25.464844 18.933594 25.507812 18.921875 25.574219 19.027344 C 25.640625 19.132812 25.734375 19.132812 25.921875 18.988281 C 26.066406 18.878906 26.132812 18.800781 26.066406 18.800781 C 25.988281 18.800781 26.160156 18.640625 26.441406 18.441406 C 26.785156 18.1875 26.933594 17.988281 26.933594 17.746094 C 26.933594 17.492188 26.972656 17.453125 27.054688 17.585938 C 27.132812 17.71875 27.265625 17.585938 27.546875 17.09375 C 27.746094 16.71875 27.988281 16.453125 28.054688 16.492188 C 28.121094 16.546875 28.148438 16.480469 28.078125 16.332031 C 28.027344 16.1875 28.078125 16 28.214844 15.851562 C 28.320312 15.734375 28.441406 15.546875 28.453125 15.441406 C 28.480469 15.347656 28.558594 15.09375 28.652344 14.894531 C 28.734375 14.679688 28.773438 14.453125 28.71875 14.386719 C 28.679688 14.320312 28.707031 14.265625 28.785156 14.265625 C 28.851562 14.265625 28.945312 14.011719 29 13.691406 C 29.054688 13.386719 29.171875 13.09375 29.253906 13.027344 C 29.359375 12.960938 29.347656 12.894531 29.214844 12.8125 C 29.054688 12.707031 29.054688 12.625 29.199219 12.265625 C 29.398438 11.773438 29.398438 10.121094 29.199219 10 C 29.121094 9.960938 29.078125 9.773438 29.078125 9.585938 C 29.105469 9.105469 28.933594 8.332031 28.785156 8.292969 C 28.71875 8.265625 28.667969 8.132812 28.667969 8 C 28.667969 7.667969 28.054688 7.066406 27.734375 7.066406 C 27.585938 7.066406 27.464844 7.132812 27.464844 7.199219 C 27.464844 7.28125 27.265625 7.332031 27.039062 7.320312 C 26.800781 7.320312 26.148438 7.425781 25.601562 7.585938 C 25.054688 7.734375 24.558594 7.867188 24.507812 7.867188 C 24.441406 7.867188 24.398438 7.960938 24.398438 8.066406 C 24.398438 8.171875 24.28125 8.265625 24.132812 8.265625 C 23.988281 8.265625 23.867188 8.320312 23.867188 8.386719 C 23.867188 8.453125 23.761719 8.480469 23.613281 8.441406 C 23.453125 8.398438 23.347656 8.464844 23.292969 8.652344 C 23.253906 8.839844 23.148438 8.90625 22.960938 8.867188 C 22.707031 8.828125 22.453125 9.105469 22.507812 9.375 C 22.519531 9.425781 22.492188 9.453125 22.441406 9.453125 C 22.148438 9.398438 21.988281 9.507812 21.8125 9.828125 C 21.707031 10.039062 21.613281 10.148438 21.601562 10.078125 C 21.601562 10.011719 21.519531 10.039062 21.414062 10.132812 C 21.308594 10.214844 21.253906 10.386719 21.292969 10.492188 C 21.347656 10.640625 21.320312 10.679688 21.226562 10.613281 C 21.132812 10.558594 21.066406 10.585938 21.066406 10.667969 C 21.066406 10.746094 21.011719 10.785156 20.945312 10.746094 C 20.878906 10.691406 20.851562 10.785156 20.894531 10.933594 C 20.945312 11.132812 20.921875 11.1875 20.761719 11.121094 C 20.625 11.078125 20.519531 11.148438 20.464844 11.320312 C 20.425781 11.480469 20.308594 11.601562 20.226562 11.601562 C 20.011719 11.585938 19.601562 11.265625 19.601562 11.105469 C 19.601562 11.039062 19.453125 10.839844 19.265625 10.667969 C 19.078125 10.492188 18.933594 10.28125 18.933594 10.1875 C 18.933594 10.09375 18.800781 9.933594 18.640625 9.851562 C 18.464844 9.773438 18.1875 9.558594 18 9.398438 C 17.8125 9.226562 17.535156 9.054688 17.375 9 C 17.1875 8.945312 17.066406 8.8125 17.066406 8.652344 C 17.066406 8.519531 17 8.398438 16.921875 8.398438 C 16.851562 8.398438 16.828125 8.464844 16.878906 8.558594 C 16.933594 8.640625 16.746094 8.574219 16.453125 8.398438 C 16.171875 8.226562 15.921875 8.027344 15.894531 7.972656 C 15.867188 7.921875 15.746094 7.867188 15.625 7.867188 C 15.492188 7.867188 15.1875 7.761719 14.933594 7.625 C 14.679688 7.507812 14.308594 7.398438 14.105469 7.414062 C 13.894531 7.414062 13.734375 7.386719 13.734375 7.332031 C 13.734375 7.28125 13.519531 7.253906 13.253906 7.292969 C 12.839844 7.347656 12.773438 7.320312 12.839844 7.148438 C 12.894531 7.027344 12.90625 6.933594 12.894531 6.933594 C 12.878906 6.945312 12.679688 7.027344 12.453125 7.121094 Z M 14.265625 7.878906 C 17.347656 8.8125 19.679688 11.066406 20.640625 14.039062 C 21.054688 15.320312 21.121094 15.761719 21.105469 17.199219 C 21.09375 18.691406 20.535156 20.839844 20.160156 20.773438 C 20.054688 20.746094 19.132812 19.09375 18.105469 17.066406 C 17.09375 15.054688 16.199219 13.347656 16.132812 13.28125 C 16.039062 13.1875 15.945312 13.199219 15.851562 13.292969 C 15.746094 13.398438 16.226562 14.453125 17.519531 17.027344 C 18.519531 19.011719 19.332031 20.652344 19.332031 20.691406 C 19.332031 20.746094 18.988281 20.679688 18.574219 20.574219 C 17.625 20.332031 15.800781 19.464844 15.265625 19.011719 C 12.839844 16.945312 11.640625 14.691406 11.492188 11.945312 C 11.425781 10.625 11.601562 9.160156 11.933594 8.347656 C 12.027344 8.121094 12.132812 7.828125 12.1875 7.691406 C 12.253906 7.480469 12.359375 7.453125 12.839844 7.535156 C 13.148438 7.585938 13.785156 7.746094 14.265625 7.878906 Z M 28.253906 7.828125 C 28.90625 9.464844 29.066406 11.453125 28.679688 13.226562 C 28.105469 15.972656 26.574219 18.105469 24.148438 19.585938 C 23.414062 20.039062 21.121094 20.851562 20.933594 20.734375 C 20.878906 20.691406 20.945312 20.441406 21.078125 20.171875 C 21.214844 19.90625 21.375 19.386719 21.414062 19.039062 C 21.464844 18.679688 21.558594 18.359375 21.613281 18.320312 C 21.679688 18.28125 21.734375 18.148438 21.734375 18.011719 C 21.734375 17.867188 21.878906 17.320312 22.066406 16.761719 C 22.667969 14.988281 23.425781 13.761719 24.601562 12.679688 C 25.09375 12.238281 25.332031 11.921875 25.28125 11.800781 C 25.238281 11.691406 25.160156 11.601562 25.09375 11.601562 C 24.972656 11.601562 23.492188 13.078125 23.066406 13.640625 C 22.640625 14.1875 21.867188 15.71875 21.867188 16.011719 C 21.867188 16.148438 21.8125 16.265625 21.746094 16.265625 C 21.574219 16.265625 21.464844 15.921875 21.464844 15.375 C 21.464844 14.878906 20.894531 13.066406 20.585938 12.558594 C 20.398438 12.28125 20.441406 12.199219 21.1875 11.226562 C 21.894531 10.320312 23.039062 9.308594 24.132812 8.640625 C 24.851562 8.214844 27.078125 7.519531 27.878906 7.480469 C 28 7.464844 28.171875 7.625 28.253906 7.828125 Z M 28.253906 7.828125 "/>
<path style=" stroke:none;fill-rule:nonzero;fill:rgb(0%,0%,0%);fill-opacity:1;" d="M 6.1875 23.613281 C 5.078125 23.71875 4.292969 24.078125 3.546875 24.839844 C 2.625 25.773438 2.121094 26.800781 2.027344 27.972656 C 1.960938 28.839844 2.214844 30.265625 2.425781 30.265625 C 2.492188 30.265625 2.519531 30.320312 2.480469 30.386719 C 2.375 30.546875 2.933594 31.253906 3.667969 31.851562 C 4.8125 32.800781 6.28125 33.066406 7.746094 32.613281 C 8.332031 32.425781 8.558594 32.414062 8.773438 32.519531 C 8.972656 32.625 9.132812 32.625 9.375 32.519531 C 9.625 32.398438 9.785156 32.425781 10.214844 32.652344 C 10.921875 33.039062 12.226562 33.039062 12.667969 32.667969 C 12.90625 32.453125 12.945312 32.332031 12.851562 32.039062 C 12.800781 31.828125 12.746094 31.09375 12.746094 30.398438 C 12.746094 29.441406 12.800781 29.027344 12.988281 28.679688 C 13.214844 28.253906 13.238281 28.238281 13.359375 28.480469 C 13.574219 28.867188 14.027344 29.199219 14.375 29.199219 C 14.585938 29.199219 14.667969 29.28125 14.667969 29.507812 C 14.667969 30.148438 15.039062 31.1875 15.464844 31.71875 C 16.585938 33.148438 18.839844 33.320312 19.894531 32.066406 C 20.238281 31.652344 19.878906 31.332031 19.039062 31.332031 C 18.09375 31.332031 17.464844 30.945312 17.464844 30.386719 C 17.464844 30.308594 18.105469 30.265625 19.039062 30.28125 L 20.601562 30.292969 L 20.601562 31.078125 C 20.601562 31.746094 20.652344 31.90625 20.933594 32.171875 C 21.828125 32.988281 22.375 33.105469 23.480469 32.734375 C 24.027344 32.546875 24.121094 32.546875 24.480469 32.734375 C 24.960938 32.988281 25.691406 32.988281 26.160156 32.746094 C 26.464844 32.585938 26.546875 32.585938 26.679688 32.746094 C 26.90625 33.027344 28.707031 33 28.988281 32.71875 C 29.105469 32.613281 29.199219 32.558594 29.199219 32.625 C 29.199219 32.679688 29.253906 32.652344 29.320312 32.546875 C 29.386719 32.453125 29.386719 32.1875 29.320312 31.945312 C 29.265625 31.71875 29.1875 30.828125 29.160156 29.960938 C 29.121094 28.679688 29.148438 28.375 29.308594 28.226562 C 29.464844 28.09375 29.519531 28.105469 29.574219 28.238281 C 29.640625 28.464844 30.359375 29.199219 30.492188 29.199219 C 30.546875 29.199219 30.773438 29.105469 30.988281 29 C 31.226562 28.867188 31.425781 28.839844 31.507812 28.921875 C 31.625 29.039062 31.558594 31.613281 31.414062 32.066406 C 31.253906 32.585938 31.640625 32.839844 32.707031 32.90625 C 33.613281 32.960938 33.707031 32.933594 34.078125 32.625 C 34.414062 32.320312 34.441406 32.253906 34.308594 32.011719 C 34.078125 31.640625 34.066406 28.386719 34.292969 28.160156 C 34.535156 27.921875 34.90625 27.972656 35.066406 28.253906 C 35.132812 28.398438 35.199219 29.148438 35.199219 29.90625 C 35.199219 31.878906 35.453125 32.398438 36.640625 32.8125 C 36.988281 32.933594 37.160156 32.921875 37.519531 32.746094 C 38.054688 32.492188 38.132812 32.238281 37.90625 31.601562 C 37.8125 31.347656 37.746094 30.546875 37.734375 29.839844 C 37.734375 29.132812 37.667969 28.386719 37.585938 28.171875 C 37.253906 27.28125 36.09375 26.492188 35.132812 26.507812 C 33.414062 26.546875 32.707031 26.585938 32.601562 26.667969 C 32.132812 27 30.800781 26.867188 30.800781 26.492188 C 30.800781 26.425781 30.480469 26.398438 30.039062 26.453125 C 29.613281 26.492188 28.878906 26.558594 28.398438 26.585938 C 27.480469 26.640625 26.878906 26.8125 26.507812 27.160156 C 26.253906 27.386719 26.171875 27.945312 26.398438 27.800781 C 26.480469 27.746094 26.535156 27.894531 26.535156 28.132812 C 26.535156 28.625 26.332031 28.558594 26.078125 27.960938 C 25.839844 27.375 25.054688 26.707031 24.375 26.519531 C 22.988281 26.160156 21.507812 26.546875 21.105469 27.398438 C 20.988281 27.652344 20.8125 27.867188 20.734375 27.867188 C 20.652344 27.867188 20.386719 27.652344 20.132812 27.398438 C 19.066406 26.308594 17.066406 26.238281 15.839844 27.265625 C 15.441406 27.601562 15.199219 27.601562 15.199219 27.265625 C 15.199219 27.171875 14.972656 26.90625 14.707031 26.679688 C 14.132812 26.199219 13.558594 26.148438 12.851562 26.480469 C 12.546875 26.625 12.347656 26.652344 12.226562 26.574219 C 11.988281 26.386719 10.265625 26.839844 10.039062 27.148438 C 9.945312 27.28125 9.894531 27.464844 9.921875 27.558594 C 9.988281 27.734375 9.839844 27.785156 9.464844 27.734375 C 9.148438 27.691406 9.148438 27.640625 9.464844 27.1875 C 9.894531 26.601562 9.960938 25.667969 9.625 25.066406 C 9.027344 23.988281 7.785156 23.453125 6.1875 23.613281 Z M 7.601562 24.148438 C 8.960938 24.441406 9.761719 25.667969 9.265625 26.71875 C 8.707031 27.894531 6.667969 27.519531 6.667969 26.238281 C 6.667969 25.453125 7.679688 25.027344 8.199219 25.601562 C 8.453125 25.878906 8.480469 25.839844 7.785156 26.066406 C 7.640625 26.105469 7.601562 26.265625 7.625 26.558594 C 7.667969 26.945312 7.71875 27 8.105469 27.039062 C 8.785156 27.105469 9.105469 26.746094 9.027344 26.011719 C 8.894531 24.851562 7.640625 24.253906 6.199219 24.652344 C 4.8125 25.039062 3.90625 26.746094 4.027344 28.71875 C 4.214844 31.625 6.933594 33.160156 7.71875 30.8125 C 7.945312 30.132812 7.90625 28.867188 7.652344 28.613281 C 7.546875 28.492188 7.386719 28.398438 7.320312 28.398438 C 7.253906 28.398438 7.199219 28.308594 7.199219 28.199219 C 7.199219 28.027344 7.253906 28.011719 7.480469 28.148438 C 7.640625 28.226562 8.214844 28.28125 8.785156 28.265625 C 10.078125 28.226562 10.132812 28.238281 9.734375 28.441406 C 9.398438 28.601562 9.398438 28.640625 9.332031 30.519531 C 9.265625 32.414062 9.265625 32.425781 9.011719 32.148438 C 8.691406 31.800781 8.464844 31.800781 7.425781 32.148438 C 6.039062 32.613281 4.585938 32.214844 3.558594 31.078125 C 2.839844 30.28125 2.574219 29.652344 2.546875 28.640625 C 2.507812 27.546875 2.707031 26.785156 3.238281 26 C 3.878906 25.039062 4.480469 24.558594 5.464844 24.226562 C 6.1875 23.972656 6.691406 23.945312 7.601562 24.148438 Z M 6.464844 25.292969 C 6.148438 26.078125 6.105469 26.253906 6.1875 26.574219 C 6.226562 26.773438 6.480469 27.148438 6.746094 27.398438 C 7.105469 27.761719 7.1875 27.921875 7.078125 28.09375 C 7.011719 28.226562 7.011719 28.441406 7.066406 28.613281 C 7.132812 28.773438 7.199219 29.308594 7.214844 29.800781 C 7.238281 30.734375 6.972656 31.347656 6.480469 31.441406 C 5.894531 31.558594 4.839844 30.375 4.574219 29.28125 C 4.308594 28.160156 4.734375 26.507812 5.492188 25.691406 C 6.039062 25.132812 6.640625 24.878906 6.464844 25.292969 Z M 12.1875 27.507812 C 12.132812 28 12.148438 28.039062 12.292969 27.800781 C 13.011719 26.707031 13.839844 26.480469 14.546875 27.1875 C 14.761719 27.398438 14.933594 27.691406 14.933594 27.828125 C 14.933594 28.265625 14.558594 28.640625 14.078125 28.691406 C 13.652344 28.746094 13.625 28.71875 13.800781 28.535156 C 14.066406 28.238281 14.054688 27.960938 13.746094 27.679688 C 13.507812 27.464844 13.453125 27.464844 13.09375 27.652344 C 12.507812 27.960938 12.238281 28.746094 12.160156 30.386719 L 12.09375 31.785156 L 12.480469 32.09375 L 12.867188 32.398438 L 11.441406 32.398438 C 10.640625 32.398438 10 32.375 10 32.332031 C 10 32.292969 10.148438 32.199219 10.332031 32.132812 L 10.667969 32 L 10.667969 30.011719 C 10.667969 27.921875 10.625 27.601562 10.320312 27.601562 C 10.214844 27.601562 10.132812 27.535156 10.132812 27.464844 C 10.132812 27.386719 10.265625 27.332031 10.414062 27.332031 C 10.773438 27.332031 11.761719 27.054688 11.921875 26.921875 C 12.148438 26.71875 12.238281 26.933594 12.1875 27.507812 Z M 24.785156 27.238281 C 25.453125 27.679688 25.71875 28.171875 25.761719 29.054688 C 25.785156 29.425781 25.839844 29.734375 25.878906 29.734375 C 25.921875 29.734375 26.199219 29.519531 26.507812 29.253906 C 26.988281 28.839844 27.066406 28.707031 27.066406 28.238281 C 27.066406 27.828125 27.011719 27.691406 26.800781 27.640625 C 26.398438 27.535156 26.480469 27.332031 26.921875 27.332031 C 27.132812 27.332031 27.558594 27.238281 27.867188 27.132812 C 28.613281 26.867188 28.707031 26.878906 28.625 27.199219 C 28.546875 27.519531 28.546875 27.519531 29.09375 27.214844 C 29.332031 27.078125 29.734375 26.933594 29.972656 26.878906 C 30.347656 26.8125 30.480469 26.867188 30.8125 27.1875 C 31.027344 27.398438 31.199219 27.71875 31.199219 27.878906 C 31.199219 28.28125 30.828125 28.667969 30.453125 28.667969 C 30.1875 28.667969 30.160156 28.613281 30.226562 28.226562 C 30.28125 27.867188 30.238281 27.761719 29.960938 27.613281 C 29.652344 27.453125 29.558594 27.464844 29.039062 27.773438 C 28.71875 27.960938 27.988281 28.519531 27.398438 29.027344 C 25.839844 30.359375 24.453125 31.480469 23.761719 31.960938 C 22.652344 32.746094 21.386719 32.480469 21.078125 31.398438 C 20.734375 30.132812 21.894531 29.066406 23.613281 29.066406 C 24.226562 29.066406 24.265625 29.039062 24.265625 28.734375 C 24.265625 28.148438 23.90625 27.480469 23.558594 27.398438 C 23.011719 27.253906 22.613281 27.386719 22.414062 27.761719 C 22.226562 28.078125 22.226562 28.132812 22.453125 28.386719 C 22.707031 28.667969 22.707031 28.667969 22.160156 28.667969 C 21.464844 28.667969 21.226562 28.320312 21.464844 27.734375 C 21.851562 26.800781 23.707031 26.519531 24.785156 27.238281 Z M 19.078125 27.292969 C 19.933594 27.734375 20.519531 28.492188 20.574219 29.238281 L 20.601562 29.761719 L 18.613281 29.734375 C 16.90625 29.71875 16.640625 29.746094 16.707031 29.921875 C 16.746094 30.027344 16.851562 30.359375 16.933594 30.652344 C 17.1875 31.613281 18.160156 32.011719 19.441406 31.691406 C 20.09375 31.519531 19.945312 31.773438 19.199219 32.105469 C 17.851562 32.691406 16.480469 32.359375 15.746094 31.238281 C 14.746094 29.746094 15.238281 28 16.867188 27.253906 C 17.734375 26.839844 18.1875 26.851562 19.078125 27.292969 Z M 33.601562 27.214844 L 33.601562 27.480469 L 33.945312 27.214844 C 34.613281 26.691406 36.039062 26.988281 36.800781 27.800781 C 37.105469 28.132812 37.132812 28.265625 37.199219 29.933594 C 37.265625 31.585938 37.292969 31.734375 37.585938 32.054688 L 37.90625 32.398438 L 37.414062 32.398438 C 36.785156 32.398438 36.066406 32.09375 35.878906 31.761719 C 35.800781 31.601562 35.734375 30.734375 35.734375 29.734375 C 35.734375 28.054688 35.71875 27.972656 35.398438 27.667969 C 35 27.253906 34.691406 27.253906 34.121094 27.640625 L 33.667969 27.945312 L 33.625 29.734375 C 33.585938 31.8125 33.625 32.039062 34.027344 32.238281 C 34.265625 32.347656 34.039062 32.386719 32.894531 32.386719 C 31.960938 32.398438 31.480469 32.347656 31.535156 32.265625 C 31.574219 32.1875 31.691406 32.132812 31.800781 32.132812 C 32.078125 32.132812 32.132812 31.800781 32.132812 29.960938 C 32.132812 27.933594 32.066406 27.601562 31.707031 27.601562 C 31.308594 27.601562 31.558594 27.332031 31.972656 27.320312 C 32.171875 27.320312 32.546875 27.226562 32.800781 27.132812 C 33.453125 26.878906 33.601562 26.894531 33.601562 27.214844 Z M 23.546875 28.386719 C 23.492188 28.464844 23.375 28.535156 23.265625 28.535156 C 23.054688 28.535156 22.867188 28.09375 23.054688 28.027344 C 23.132812 28 23.160156 27.90625 23.121094 27.828125 C 23.066406 27.734375 23.160156 27.800781 23.332031 27.945312 C 23.492188 28.105469 23.585938 28.308594 23.546875 28.386719 Z M 28.667969 30.214844 C 28.667969 31.90625 28.679688 32.027344 28.933594 32.09375 C 29.558594 32.253906 29.105469 32.398438 27.933594 32.398438 C 26.773438 32.398438 26.359375 32.28125 26.867188 32.078125 C 27.027344 32.027344 27.066406 31.761719 27.066406 30.839844 L 27.066406 29.667969 L 27.734375 29.132812 C 28.105469 28.839844 28.398438 28.558594 28.398438 28.507812 C 28.398438 28.441406 28.464844 28.398438 28.535156 28.398438 C 28.613281 28.398438 28.667969 29.09375 28.667969 30.214844 Z M 10.011719 31.707031 C 9.90625 31.867188 9.878906 31.507812 9.867188 30.453125 C 9.867188 29.640625 9.90625 28.933594 9.972656 28.878906 C 10.121094 28.71875 10.160156 31.441406 10.011719 31.707031 Z M 25.867188 31.414062 C 25.867188 31.90625 25.921875 32.039062 26.132812 32.09375 C 26.679688 32.238281 26.375 32.398438 25.546875 32.398438 C 24.945312 32.398438 24.652344 32.347656 24.535156 32.1875 C 24.386719 32.011719 24.453125 31.894531 25.011719 31.398438 C 25.375 31.078125 25.707031 30.8125 25.773438 30.800781 C 25.828125 30.800781 25.867188 31.078125 25.867188 31.414062 Z M 25.867188 31.414062 "/>
<path style=" stroke:none;fill-rule:nonzero;fill:rgb(0%,0%,0%);fill-opacity:1;" d="M 23.667969 29.464844 C 22.652344 29.625 22.160156 30.105469 22.332031 30.773438 C 22.464844 31.320312 22.785156 31.601562 23.265625 31.601562 C 23.988281 31.601562 24.253906 31.265625 24.28125 30.308594 C 24.292969 29.839844 24.292969 29.453125 24.253906 29.425781 C 24.226562 29.398438 23.960938 29.425781 23.667969 29.464844 Z M 23.734375 30.453125 C 23.734375 30.921875 23.507812 31.121094 23.132812 30.988281 C 22.867188 30.878906 22.878906 30.480469 23.148438 30.214844 C 23.492188 29.851562 23.734375 29.945312 23.734375 30.453125 Z M 23.734375 30.453125 "/>
<path style=" stroke:none;fill-rule:nonzero;fill:rgb(0%,0%,0%);fill-opacity:1;" d="M 17.226562 27.828125 C 16.972656 28.1875 16.90625 28.375 16.746094 29.066406 L 16.679688 29.398438 L 17.921875 29.359375 L 19.171875 29.320312 L 19.066406 28.894531 C 18.8125 27.828125 18.519531 27.464844 17.921875 27.464844 C 17.601562 27.464844 17.414062 27.558594 17.226562 27.828125 Z M 18.320312 28.386719 L 18.519531 28.746094 L 17.988281 28.773438 C 17.414062 28.8125 17.332031 28.652344 17.679688 28.160156 C 17.921875 27.8125 18.054688 27.867188 18.320312 28.386719 Z M 18.320312 28.386719 "/>
</g>
</svg>
